nColumns=19
nRows=118
DataType=double
version=3
OpenSimVersion=4.1
endheader
time	ground_force_1_vx	ground_force_1_vy	ground_force_1_vz	ground_force_1_px	ground_force_1_py	ground_force_1_pz	ground_force_1_mx	ground_force_1_my	ground_force_1_mz	ground_force_2_vx	ground_force_2_vy	ground_force_2_vz	ground_force_2_px	ground_force_2_py	ground_force_2_pz	ground_force_2_mx	ground_force_2_my	ground_force_2_mz
1.81	-324.488	1914.53	-32.5945	0.972805	0	-0.253842	0	28.4949	0	0	0	0	0.27519	0	-0.337085	0	0	0
1.815	-411.584	2009.65	55.2434	0.96376	0	-0.252553	0	11.558	0	0	0	0	0.292365	0	-0.340328	0	0	0
1.82	-467.785	2114.56	113.013	0.954621	0	-0.251633	0	-5.24035	0	0	0	0	0.309833	0	-0.342974	0	0	0
1.825	-487.916	2237.6	124.179	0.942491	0	-0.251674	0	-11.7398	0	0	0	0	0.327328	0	-0.346836	0	0	0
1.83	-477.225	2361.03	87.4785	0.924804	0	-0.252546	0	-6.41246	0	0	0	0	0.345367	0	-0.350151	0	0	0
1.835	-437.937	2466.72	21.7563	0.901399	0	-0.25373	0	4.15703	0	0	0	0	0.364083	0	-0.351579	0	0	0
1.84	-373.2	2548.17	-43.2838	0.873803	0	-0.254612	0	12.448	0	0	0	0	0.383208	0	-0.355391	0	0	0
1.845	-294.29	2606.01	-84.2637	0.844508	0	-0.25496	0	13.7621	0	0	0	0	0.402917	0	-0.3582	0	0	0
1.85	-213.555	2640.63	-95.3611	0.816093	0	-0.254875	0	8.44721	0	0	0	0	0.423326	0	-0.361627	0	0	0
1.855	-135.217	2653.76	-89.7373	0.789453	0	-0.254837	0	3.86586	0	0	0	0	0.444692	0	-0.363956	0	0	0
1.86	-57.4463	2648.09	-84.7321	0.764009	0	-0.255289	0	6.33737	0	0	0	0	0.466741	0	-0.366013	0	0	0
1.865	22.2873	2623.56	-87.9403	0.73956	0	-0.256298	0	15.0757	0	0	0	0	0.48974	0	-0.367918	0	0	0
1.87	100.668	2579.56	-92.0612	0.716235	0	-0.257542	0	25.3554	0	0	0	0	0.51368	0	-0.369968	0	0	0
1.875	171.787	2517.03	-81.7635	0.69433	0	-0.258525	0	30.7845	0	0	0	0	0.538453	0	-0.373025	0	0	0
1.88	231.866	2434.83	-48.2346	0.674217	0	-0.258886	0	24.8464	0	0	0	0	0.563871	0	-0.371776	0	0	0
1.885	278.542	2326.35	1.43681	0.654805	0	-0.258508	0	5.77058	0	0	0	0	0.591086	0	-0.372869	0	0	0
1.89	313.848	2188.69	50.6876	0.634983	0	-0.257632	0	-21.964	0	0	0	0	0.619055	0	-0.373183	0	0	0
1.895	344.715	2026.94	83.1891	0.614967	0	-0.256621	0	-46.3593	0	0	0	0	0.647944	0	-0.373181	0	0	0
1.9	377.024	1842.57	84.745	0.592765	0	-0.256157	0	-51.266	0	0	0	0	0.677456	0	-0.372758	0	0	0
1.905	409.942	1630.2	49.4027	0.562708	0	-0.256842	0	-29.6704	0	0	0	0	0.70758	0	-0.371708	0	0	0
1.91	437.806	1388.43	-12.2208	0.518176	0	-0.259	0	9.39598	0	0	0	0	0.738021	0	-0.370564	0	0	0
1.915	452.142	1130.93	-70.9157	0.455342	0	-0.262258	0	48.5031	0	0	0	0	0.768728	0	-0.369409	0	0	0
1.92	443.143	881.982	-92.1565	0.379074	0	-0.265056	0	66.9689	0	0	0	0	0.799359	0	-0.367763	0	0	0
1.925	403.303	659.797	-62.627	0.305271	0	-0.264761	0	48.9581	0	0	0	0	0.829092	0	-0.36557	0	0	0
1.93	332.185	470.58	-1.91087	0.254795	0	-0.25945	0	0.504541	0	0	0	0	0.859883	0	-0.363806	0	0	0
1.935	244.271	308.748	49.4948	0.23353	0	-0.250013	0	-43.7305	0	0	0	0	0.890194	0	-0.36246	0	0	0
1.94	163.404	172.678	60.2334	0.258568	-0	-0.244422	0	-52.0424	0	0	0	0	0.920326	0	-0.361579	0	0	0
1.945	104.584	73.2333	33.4421	0.302249	0	-0.24284	0	-27.2295	0	0	0	0	0.950924	0	-0.360421	0	0	0
1.95	67.2026	13.7338	-1.82584	0.282595	0	-0.240979	0	3.07554	0	0	0	0	0.981424	0	-0.360754	0	0	0
1.955	0	0	0	0.264094	0	-0.238607	0	0	0	0	0	0	1.01118	0	-0.361464	0	0	0
1.96	0	0	0	0.245705	0	-0.235305	0	0	0	0	0	0	1.04098	0	-0.362574	0	0	0
1.965	0	0	0	0.227421	0	-0.230986	0	0	0	0	0	0	1.07033	0	-0.364137	0	0	0
1.97	0	0	0	0.211989	0	-0.226144	0	0	0	0	0	0	1.09914	0	-0.366229	0	0	0
1.975	0	0	0	0.195339	0	-0.221344	0	0	0	0	0	0	1.12747	0	-0.368422	0	0	0
1.98	0	0	0	0.174966	0	-0.218654	0	0	0	0	0	0	1.1549	0	-0.371048	0	0	0
1.985	0	0	0	0.157648	0	-0.217128	0	0	0	0	0	0	1.18095	0	-0.374352	0	0	0
1.99	0	0	0	0.142779	0	-0.21527	0	0	0	0	0	0	1.20525	0	-0.378192	0	0	0
1.995	0	0	0	0.130528	0	-0.213693	0	0	0	0	0	0	1.22718	0	-0.38238	0	0	0
2	0	0	0	0.12004	0	-0.213668	0	0	0	0	0	0	1.24654	0	-0.386473	0	0	0
2.005	0	0	0	0.108314	0	-0.21329	0	0	0	0	0	0	1.26316	0	-0.390263	0	0	0
2.01	0	0	0	0.097544	0	-0.2141	0	0	0	0	0	0	1.27684	0	-0.393336	0	0	0
2.015	0	0	0	0.087564	0	-0.215317	0	0	0	0	0	0	1.2877	0	-0.395742	0	0	0
2.02	0	0	0	0.079111	0	-0.215761	0	0	0	0	0	0	1.29589	0	-0.39687	0	0	0
2.025	0	0	0	0.071756	0	-0.216315	0	0	0	0	0	0	1.30122	0	-0.398354	0	0	0
2.03	0	0	0	0.064901	0	-0.220057	0	0	0	0	0	0	1.30399	0	-0.399512	0	0	0
2.035	0	0	0	0.060261	0	-0.221777	0	0	0	0	0	0	1.3044	0	-0.399938	0	0	0
2.04	0	0	0	0.057413	0	-0.22381	0	0	0	0	0	0	1.30265	0	-0.399625	0	0	0
2.045	0	0	0	0.05699	0	-0.225113	0	0	0	0	0	0	1.29897	0	-0.398322	0	0	0
2.05	0	0	0	0.058046	0	-0.228079	0	0	0	0	0	0	1.29329	0	-0.396329	0	0	0
2.055	0	0	0	0.061513	0	-0.230334	0	0	0	0	0	0	1.28558	0	-0.394635	0	0	0
2.06	0	0	0	0.067254	0	-0.232233	0	0	0	0	0	0	1.27602	0	-0.392171	0	0	0
2.065	0	0	0	0.074958	0	-0.233769	0	0	0	0	0	0	1.26454	0	-0.389499	0	0	0
2.07	0	0	0	0.084599	0	-0.234931	0	0	0	0	0	0	1.25115	0	-0.386717	0	0	0
2.075	0	0	0	0.095752	0	-0.23613	0	0	0	0	0	0	1.236	0	-0.38348	0	0	0
2.08	0	0	0	0.10815	0	-0.235944	0	0	0	-29.7253	33.9724	-21.7923	1.21929	0	-0.380033	0	-14.099	0
2.085	0	0	0	0.1218	0	-0.235609	0	0	0	-60.8708	147.809	-5.80257	1.14756	-0	-0.401162	0	-7.59231	0
2.09	0	0	0	0.136376	0	-0.235449	0	0	0	-102.007	333.523	27.3042	1.05802	0	-0.419391	0	-1.14855	0
2.095	0	0	0	0.147986	0	-0.236541	0	0	0	-147.479	580.101	82.4175	1.04204	0	-0.403142	0	6.99089	0
2.1	0	0	0	0.167893	0	-0.234529	0	0	0	-183.864	844.601	155.123	1.03194	0	-0.389368	0	11.9814	0
2.105	0	0	0	0.184958	0	-0.233443	0	0	0	-204.488	1089.89	217.338	1.0207	0	-0.3779	0	5.73351	0
2.11	0	0	0	0.202817	0	-0.231886	0	0	0	-225.892	1309.33	228.854	1.00206	0	-0.369662	0	-15.3317	0
2.115	0	0	0	0.221178	0	-0.229917	0	0	0	-266.3	1505.02	168.425	0.977941	0	-0.365305	0	-36.8129	0
2.12	0	0	0	0.239912	0	-0.228502	0	0	0	-315.062	1672.02	53.9491	0.95905	0	-0.364562	0	-36.3055	0
2.125	0	0	0	0.258952	0	-0.227995	0	0	0	-359.517	1817.83	-64.5334	0.948671	0	-0.365696	0	-10.3269	0
2.13	0	0	0	0.278625	0	-0.226581	0	0	0	-399.448	1959.81	-134.227	0.941381	0	-0.366408	0	23.4413	0
2.135	0	0	0	0.298206	0	-0.225512	0	0	0	-426.985	2106.32	-127.406	0.934031	0	-0.365261	0	40.5734	0
2.14	0	0	0	0.318211	0	-0.224603	0	0	0	-434.383	2255.42	-54.0306	0.923038	0	-0.362484	0	30.5989	0
2.145	0	0	0	0.338365	0	-0.223891	0	0	0	-421.115	2396.24	48.6123	0.905004	0	-0.359775	0	4.35647	0
2.15	0	0	0	0.35857	0	-0.223388	0	0	0	-385.803	2509.9	137.191	0.881268	0	-0.35872	0	-16.0997	0
2.155	0	0	0	0.378892	0	-0.223162	0	0	0	-332.85	2581.69	181.765	0.853601	0	-0.359762	0	-16.2333	0
2.16	0	0	0	0.399564	0	-0.223576	0	0	0	-269.826	2616.73	178.532	0.824204	0	-0.361855	0	-3.25692	0
2.165	0	0	0	0.420548	0	-0.223075	0	0	0	-200.636	2633.31	148.788	0.796112	0	-0.363385	0	5.29638	0
2.17	0	0	0	0.44228	0	-0.222676	0	0	0	-127.586	2640.69	121.327	0.769877	0	-0.363496	0	3.51442	0
2.175	0	0	0	0.464605	0	-0.222418	0	0	0	-52.9787	2635.19	110.724	0.74443	0	-0.362677	0	-2.89468	0
2.18	0	0	0	0.487849	0	-0.222285	0	0	0	21.6382	2614.58	109.812	0.719718	0	-0.361645	0	-7.55397	0
2.185	0	0	0	0.512134	0	-0.221475	0	0	0	95.7712	2578.71	100.241	0.695386	0	-0.360777	0	-7.87345	0
2.19	0	0	0	0.537077	0	-0.222301	0	0	0	169.837	2527.08	69.4339	0.671666	0	-0.360084	0	-3.40912	0
2.195	0	0	0	0.562981	0	-0.222725	0	0	0	242.557	2457.36	20.3702	0.649284	0	-0.359549	0	6.67071	0
2.2	0	0	0	0.589867	0	-0.222839	0	0	0	308.155	2364.98	-31.3227	0.628754	0	-0.359109	0	24.3263	0
2.205	0	0	0	0.617512	0	-0.223439	0	0	0	360.704	2244.14	-68.1923	0.610308	0	-0.358619	0	45.3852	0
2.21	0	0	0	0.645885	0	-0.224387	0	0	0	398.097	2090.57	-78.3913	0.593012	0	-0.357912	0	55.4757	0
2.215	0	0	0	0.674871	0	-0.225068	0	0	0	422.908	1902.25	-57.4659	0.573348	0	-0.356787	0	41.9886	0
2.22	0	0	0	0.704375	0	-0.22587	0	0	0	441.416	1678.71	-12.8034	0.5453	0	-0.355573	0	8.27109	0
2.225	0	0	0	0.734187	0	-0.226651	0	0	0	459.678	1423.37	36.5581	0.500827	0	-0.355431	0	-30.1963	0
2.23	0	0	0	0.764691	0	-0.22698	0	0	0	475.894	1150.39	65.0449	0.432013	0	-0.358188	0	-54.351	0
2.235	0	0	0	0.794655	0	-0.227606	0	0	0	479.176	887.194	54.8039	0.342276	0	-0.364676	0	-48.7238	0
2.24	0	0	0	0.824997	0	-0.228841	0	0	0	453.225	660.737	6.39896	0.258573	0	-0.373661	0	-9.72818	0
2.245	0	0	0	0.854811	0	-0.230145	0	0	0	387.107	477.076	-56.6497	0.214184	0	-0.383232	0	42.4654	0
2.25	0	0	0	0.884813	0	-0.230849	0	0	0	290.918	324.591	-96.8938	0.218651	0	-0.3912	0	71.4814	0
2.255	0	0	0	0.914758	0	-0.232386	0	0	0	190.837	194.99	-91.2145	0.256367	-0	-0.388319	0	60.2975	0
2.26	0	0	0	0.944641	0	-0.234026	0	0	0	109.501	93.9134	-50.3587	0.300598	0	-0.358424	0	24.9579	0
2.265	0	0	0	0.974422	0	-0.235651	0	0	0	54.8274	28.587	-8.79031	0.281508	0	-0.359783	0	-6.79392	0
2.27	0	0	0	1.00381	0	-0.237885	0	0	0	0	0	0	0.262456	0	-0.36161	0	0	0
2.275	0	0	0	1.03314	0	-0.240625	0	0	0	0	0	0	0.243241	0	-0.362932	0	0	0
2.28	0	0	0	1.06134	0	-0.242461	0	0	0	0	0	0	0.224331	0	-0.364081	0	0	0
2.285	0	0	0	1.08888	0	-0.244042	0	0	0	0	0	0	0.207833	0	-0.362614	0	0	0
2.29	0	0	0	1.11568	0	-0.245796	0	0	0	0	0	0	0.189157	0	-0.35839	0	0	0
2.295	0	0	0	1.14088	0	-0.246707	0	0	0	0	0	0	0.168811	0	-0.354199	0	0	0
2.3	0	0	0	1.16515	0	-0.247721	0	0	0	0	0	0	0.15243	0	-0.348722	0	0	0
2.305	0	0	0	1.18843	0	-0.24848	0	0	0	0	0	0	0.13842	0	-0.342848	0	0	0
2.31	0	0	0	1.21012	0	-0.248904	0	0	0	0	0	0	0.12489	0	-0.336541	0	0	0
2.315	0	0	0	1.23018	0	-0.248807	0	0	0	0	0	0	0.111464	0	-0.330486	0	0	0
2.32	0	0	0	1.24778	0	-0.248057	0	0	0	0	0	0	0.09789	0	-0.324946	0	0	0
2.325	0	0	0	1.26281	0	-0.247165	0	0	0	0	0	0	0.085064	0	-0.319742	0	0	0
2.33	0	0	0	1.27509	0	-0.24596	0	0	0	0	0	0	0.073815	0	-0.315061	0	0	0
2.335	0	0	0	1.28448	0	-0.244967	0	0	0	0	0	0	0.06553	0	-0.31064	0	0	0
2.34	0	0	0	1.2913	0	-0.244128	0	0	0	0	0	0	0.057333	0	-0.307382	0	0	0
2.345	0	0	0	1.29567	0	-0.243778	0	0	0	0	0	0	0.051815	0	-0.304774	0	0	0
2.35	0	0	0	1.29782	0	-0.243894	0	0	0	0	0	0	0.048179	0	-0.303644	0	0	0
2.355	0	0	0	1.29778	0	-0.244198	0	0	0	0	0	0	0.046622	0	-0.302547	0	0	0
2.36	0	0	0	1.29552	0	-0.24446	0	0	0	0	0	0	0.047043	0	-0.302769	0	0	0
2.365	0	0	0	1.29099	0	-0.244559	0	0	0	0	0	0	0.049436	0	-0.305346	0	0	0
2.37	0	0	0	1.28434	0	-0.24427	0	0	0	0	0	0	0.053091	0	-0.304919	0	0	0
2.375	0	0	0	1.27553	0	-0.243866	0	0	0	0	0	0	0.058535	0	-0.307179	0	0	0
2.38	0	0	0	1.26459	0	-0.244446	0	0	0	0	0	0	0.065584	0	-0.309477	0	0	0
2.385	0	0	0	1.25181	0	-0.245412	0	0	0	0	0	0	0.074117	0	-0.312114	0	0	0
2.39	0	0	0	1.23725	0	-0.247099	0	0	0	0	0	0	0.083787	0	-0.315257	0	0	0
2.395	0	0	0	1.22124	0	-0.249673	0	0	0	0	0	0	0.094878	0	-0.318813	0	0	0
